<?xml version="1.0" encoding="UTF-8"?>
<svg id="Layer_2" data-name="Layer 2" xmlns="http://www.w3.org/2000/svg" viewBox="0 0 393.44 455.09">
  <defs>
    <style>
      .cls-1, .cls-2 {
        fill: #69b882;
      }

      .cls-3, .cls-4 {
        fill: #fff;
      }

      .cls-5, .cls-6 {
        fill: #e19d70;
      }

      .cls-7 {
        fill: #406582;
      }

      .cls-2, .cls-4, .cls-6 {
        stroke: #fcde80;
      }

      .cls-2, .cls-4, .cls-6, .cls-8 {
        stroke-miterlimit: 10;
      }

      .cls-8 {
        fill: none;
        stroke: #406582;
        stroke-width: 11px;
      }
    </style>
  </defs>
  <g id="Layer_1-2" data-name="Layer 1">
    <g>
      <g>
        <path class="cls-4" d="m387.94,136.6v203.73c0,1.27-.32,2.49-.92,3.57-.04.07-.08.14-.12.21-.62,1.03-1.48,1.92-2.56,2.56-.03.02-.07.04-.1.06l-176.43,101.86s-.07.04-.11.06c-1.16.65-2.39.94-3.58.94-3.86,0-7.4-3.09-7.4-7.4v-207.99l180.14-104c4.92-2.84,11.08.72,11.08,6.4Z"/>
        <path class="cls-6" d="m384.27,125.66l-72.41,41.9-115.14,66.64-115.14-66.64L9.17,125.66c-3.73-2.15-4.61-6.78-2.66-10.11.53-.9,1.25-1.69,2.18-2.33.14-.1.29-.19.44-.28.02,0,.03-.02.05-.03L193.04,6.49s.1-.06.15-.08c1.1-.61,2.32-.91,3.53-.91s2.38.29,3.46.87c.07.04.13.07.2.11,0,0,0,0,0,0l183.88,106.42h0s.03.02.05.03c.04.03.09.05.13.08,1,.62,1.78,1.41,2.35,2.31.08.13.16.26.23.39,1.82,3.33.89,7.82-2.76,9.94Z"/>
        <path class="cls-2" d="m196.71,234.2v207.99c0,4.31-3.54,7.4-7.4,7.4-1.23,0-2.49-.31-3.68-1L27.4,357.24l-18.2-10.51h-.01c-1.11-.64-2-1.54-2.64-2.6-.1-.17-.2-.35-.29-.52-.49-1.01-.76-2.12-.76-3.28v-203.73c0-5.68,6.16-9.24,11.08-6.4l180.13,104Z"/>
      </g>
      <g>
        <path class="cls-5" d="m80.86,167.31l115.85,66.89v133.78c0,3.66-3.96,5.95-7.13,4.12l-113.47-65.52c-1.47-.85-2.38-2.42-2.38-4.12v-131.03c0-3.66,3.96-5.95,7.13-4.12Z"/>
        <path class="cls-1" d="m319.13,171.24v126.28c0,3.56-1.64,6.13-6.36,8.94l-109.5,65.66c-2.92,1.75-6.56-.43-6.56-3.93v-133.94h0l115.85-66.94c2.92-1.75,6.56.44,6.56,3.93Z"/>
        <path class="cls-3" d="m312.41,167.31l-115.69,66.89-115.69-66.89c-3.17-1.83-3.17-6.4,0-8.23l113.31-65.51c1.47-.85,3.29-.85,4.75,0l113.31,65.51c3.17,1.83,3.17,6.4,0,8.23Z"/>
      </g>
      <g>
        <path class="cls-8" d="m387.94,136.6v203.73c0,1.27-.32,2.49-.92,3.57-.04.07-.08.14-.12.21-.62,1.03-1.48,1.92-2.56,2.56-.03.02-.07.04-.1.06l-176.43,101.86s-.07.04-.11.06c-1.16.65-2.39.94-3.58.94-3.86,0-7.4-3.09-7.4-7.4v-207.99l180.14-104c4.92-2.84,11.08.72,11.08,6.4Z"/>
        <path class="cls-8" d="m384.27,125.66l-72.41,41.9-115.14,66.64-115.14-66.64L9.17,125.66c-3.73-2.15-4.61-6.78-2.66-10.11.53-.9,1.25-1.69,2.18-2.33.14-.1.29-.19.44-.28.02,0,.03-.02.05-.03L193.04,6.49s.1-.06.15-.08c1.1-.61,2.32-.91,3.53-.91s2.38.29,3.46.87c.07.04.13.07.2.11,0,0,0,0,0,0l183.88,106.42h0s.03.02.05.03c.04.03.09.05.13.08,1,.62,1.78,1.41,2.35,2.31.08.13.16.26.23.39,1.82,3.33.89,7.82-2.76,9.94Z"/>
        <path class="cls-8" d="m196.71,234.2v207.99c0,4.31-3.54,7.4-7.4,7.4-1.23,0-2.49-.31-3.68-1L27.4,357.24l-18.2-10.51h-.01c-1.11-.64-2-1.54-2.64-2.6-.1-.17-.2-.35-.29-.52-.49-1.01-.76-2.12-.76-3.28v-203.73c0-5.68,6.16-9.24,11.08-6.4l180.13,104Z"/>
        <rect class="cls-7" x="388.27" y="118.35" width="5.17" height="19.43"/>
        <rect class="cls-7" x="0" y="119.53" width="5.22" height="19.75"/>
        <rect class="cls-7" x="189.57" y="450.72" width="14.46" height="4.36"/>
      </g>
    </g>
  </g>
</svg>